# xmcd
#
# Track frame offsets:
#	150
#	13127
#	26399
#	37590
#	49854
#	60991
#	73696
#	84373
#	94202
#	103782
#	117362
#	133765
#
# Disc length: 1936 seconds
#
# Revision: 1
# Processed by: cddbd v1.5.2PL0 Copyright (c) Steve Scherf et al.
# Submitted via: audiograbber 1.83.01
#
DISCID=95078e0c
DTITLE=Brightwater Junction - Goodbye to the Blues
DYEAR=2002
DGENRE=Bluegrass
TTITLE0=Goodbye to the Blues
TTITLE1=Prison Walls of Love
TTITLE2=Say You'll Take Me Back Once More
TTITLE3=Sweet Bunch of Daisies
TTITLE4=Midnight Storm
TTITLE5=40 Miles From Poplar Bluff
TTITLE6=Does It Have to End This Way
TTITLE7=Blue Bonnet Lane
TTITLE8=Love Come Home
TTITLE9=I Just Think I'll Go Away
TTITLE10=I Wonder Why You Said Goodbye
TTITLE11=Hog On Ice
EXTD=
EXTT0=
EXTT1=
EXTT2=
EXTT3=
EXTT4=
EXTT5=
EXTT6=
EXTT7=
EXTT8=
EXTT9=
EXTT10=
EXTT11=
PLAYORDER=
